<?xml version="1.0" encoding="utf-8"?>
<!-- Svg Vector Icons : http://www.onlinewebfonts.com/icon -->
<!DOCTYPE svg PUBLIC "-//W3C//DTD SVG 1.1//EN" "http://www.w3.org/Graphics/SVG/1.1/DTD/svg11.dtd">
<svg version="1.1" xmlns="http://www.w3.org/2000/svg" xmlns:xlink="http://www.w3.org/1999/xlink" x="0px" y="0px" viewBox="0 0 256 256" enable-background="new 0 0 256 256" xml:space="preserve">
<metadata> Svg Vector Icons : http://www.onlinewebfonts.com/icon </metadata>
<g><g><g><path fill="#000000" d="M128,10C62.9,10,10,62.9,10,128c0,65.1,52.9,118,118,118c65.1,0,118-52.9,118-118C246,62.9,193.1,10,128,10z M220.9,133.8h5.6c-3,51.7-46,92.9-98.5,92.9c-54.4,0-98.7-44.3-98.7-98.7S73.6,29.3,128,29.3c53.8,0,97.6,43.2,98.6,96.7h-5.8c-2.1,0-3.9,1.7-3.9,3.9C217,132.1,218.7,133.8,220.9,133.8z"/><path fill="#000000" d="M186,126.1h-11.6c-2.1,0-3.9,1.7-3.9,3.9c0,2.1,1.7,3.9,3.9,3.9H186c2.1,0,3.9-1.7,3.9-3.9C189.9,127.8,188.2,126.1,186,126.1z"/><path fill="#000000" d="M162.8,126.1h-11.6c-2.1,0-3.9,1.7-3.9,3.9c0,2.1,1.7,3.9,3.9,3.9h11.6c2.1,0,3.9-1.7,3.9-3.9C166.7,127.8,165,126.1,162.8,126.1z"/><path fill="#000000" d="M209.3,126.1h-11.6c-2.1,0-3.9,1.7-3.9,3.9c0,2.1,1.7,3.9,3.9,3.9h11.6c2.1,0,3.9-1.7,3.9-3.9C213.1,127.8,211.4,126.1,209.3,126.1z"/><path fill="#000000" d="M139.6,126.1H128c-2.1,0-3.9,1.7-3.9,3.9c0,2.1,1.7,3.9,3.9,3.9h11.6c2.1,0,3.9-1.7,3.9-3.9C143.5,127.8,141.8,126.1,139.6,126.1z"/></g></g></g>
</svg>